<?xml version="1.0" encoding="utf-8"?>
<!-- Generator: Adobe Illustrator 15.1.0, SVG Export Plug-In . SVG Version: 6.00 Build 0)  -->
<!DOCTYPE svg PUBLIC "-//W3C//DTD SVG 1.1//EN" "http://www.w3.org/Graphics/SVG/1.1/DTD/svg11.dtd">
<svg version="1.1" id="Layer_1" xmlns="http://www.w3.org/2000/svg" xmlns:xlink="http://www.w3.org/1999/xlink" x="0px" y="0px"
	  width="1200px" height="400px" viewBox="650 950 1200 400" enable-background="new 0 0 1200 900" xml:space="preserve">
<g transform="scale(2.1)">
	<g>
		<path fill="#A67B48" d="M321.478,582.784c0-28.625,21.978-49.11,51.553-49.11c16.416,0,30.118,5.969,39.072,16.822l-14.109,13.023
			c-6.376-7.325-14.381-11.124-23.877-11.124c-17.772,0-30.39,12.481-30.39,30.389c0,17.908,12.617,30.39,30.39,30.39
			c9.496,0,17.501-3.799,23.877-11.261l14.109,13.024c-8.954,10.988-22.656,16.958-39.208,16.958
			C343.455,631.896,321.478,611.41,321.478,582.784z"/>
		<path fill="#A67B48" d="M489.974,588.618v41.649h-19.807v-9.09c-3.935,6.647-11.532,10.175-22.25,10.175
			c-17.094,0-27.269-9.496-27.269-22.113c0-12.888,9.09-21.842,31.339-21.842h16.822c0-9.09-5.426-14.381-16.822-14.381
			c-7.732,0-15.737,2.577-21.028,6.783l-7.597-14.787c8.004-5.698,19.807-8.818,31.474-8.818
			C477.086,556.194,489.974,566.505,489.974,588.618z M468.81,607.204v-7.461h-14.516c-9.904,0-13.024,3.662-13.024,8.547
			c0,5.291,4.478,8.818,11.938,8.818C460.263,617.108,466.368,613.852,468.81,607.204z"/>
		<path fill="#A67B48" d="M583.719,588.482v41.785h-21.163v-38.529c0-11.803-5.427-17.229-14.788-17.229
			c-10.175,0-17.501,6.241-17.501,19.672v36.087h-21.164v-72.988h20.215v8.547c5.697-6.24,14.245-9.632,24.148-9.632
			C570.695,556.194,583.719,566.233,583.719,588.482z"/>
		<path fill="#e7edef" d="M604.341,535.302h43.143c31.066,0,52.367,18.722,52.367,47.482c0,28.762-21.301,47.483-52.367,47.483
			h-43.143V535.302z M646.397,612.224c18.857,0,31.203-11.26,31.203-29.439c0-18.179-12.346-29.439-31.203-29.439h-20.078v58.879
			H646.397z"/>
		<path fill="#e7edef" d="M709.481,593.773c0-21.978,16.959-37.579,40.156-37.579c23.199,0,40.021,15.602,40.021,37.579
			s-16.822,37.579-40.021,37.579C726.44,631.353,709.481,615.751,709.481,593.773z M768.226,593.773
			c0-12.617-8.006-20.214-18.588-20.214s-18.721,7.597-18.721,20.214s8.139,20.214,18.721,20.214S768.226,606.391,768.226,593.773z"
			/>
		<path fill="#e7edef" d="M798.345,593.773c0-21.978,16.957-37.579,40.156-37.579s40.021,15.602,40.021,37.579
			s-16.822,37.579-40.021,37.579S798.345,615.751,798.345,593.773z M857.087,593.773c0-12.617-8.004-20.214-18.586-20.214
			s-18.723,7.597-18.723,20.214s8.141,20.214,18.723,20.214S857.087,606.391,857.087,593.773z"/>
	</g>
</g>
</svg>
