<?xml version="1.0" encoding="utf-8"?>
<!-- Generator: Adobe Illustrator 15.1.0, SVG Export Plug-In . SVG Version: 6.00 Build 0)  -->
<!DOCTYPE svg PUBLIC "-//W3C//DTD SVG 1.1//EN" "http://www.w3.org/Graphics/SVG/1.1/DTD/svg11.dtd">
<svg version="1.1" id="Layer_1" xmlns="http://www.w3.org/2000/svg" xmlns:xlink="http://www.w3.org/1999/xlink" x="0px" y="0px"
	 width="1200px" height="900px" viewBox="0 0 1200 900" enable-background="new 0 0 1200 900" xml:space="preserve">
<g>
	<g>
		<path fill="#A67B48" d="M574.423,511.332l-53.312,136.195c-1.214,3.104-4.227,5.15-7.578,5.15h-23.126
			c-5.718,0-9.656-5.703-7.584-10.99l71.33-182.213L574.423,511.332z"/>
		<path fill="#A67B48" d="M672.078,446.572h-24.431c-4.447,0-8.059,3.583-8.059,7.997v198.109h32.512c4.439,0,8.04-3.579,8.04-7.978
			V454.568C680.141,450.155,676.532,446.572,672.078,446.572"/>
		<path fill="#A67B48" d="M601.796,451.679l27.665,70.67v103.523l-70.209-179.305h35.016
			C597.601,446.567,600.588,448.597,601.796,451.679"/>
	</g>
	<path fill="#172E4E" d="M417.215,399.713l29.928,78.658h-25.774h-4.153V399.713z M782.789,399.713v78.658h-4.153h-25.77
		L782.789,399.713z M412.184,397.881v80.49h-1.271h-29.356L412.184,397.881z M787.822,397.875l30.625,80.496h-29.356h-1.269V397.875
		z M580.047,342.362c0,9.268,6.421,17.025,15.085,19.189v8.376c-12.572-6.78-26.303-11.438-40.204-13.613
		c-35.966-5.785-71.463,3.14-105.04,13.378c-15.734,4.248-31.748,11.254-47.983,10.483c-12.533,0.176-22.288-12.395-12.965-22.988
		c2.616-2.939,6.478-4.781,10.554-4.908c2.398-0.085,4.376-2.006,4.453-4.418c0.077-2.513-1.917-4.613-4.453-4.687
		c-13.593-0.592-25.654,11.442-25.193,25.059c-0.028,14.595,16.832,24.788,26.718,24.596c2.54,0.278,5.063,0.381,7.568,0.366
		l-32.374,85.093c-0.01,0.023-0.003,0.053-0.013,0.082h-9.666c-2.969,0-5.372,2.365-5.424,5.166v0.176
		c0.008,0.319,0.044,0.641,0.111,0.963c3.787,17.872,23.379,31.479,46.984,31.479h2.708h9.586h0.869v-0.036
		c23.21-0.332,42.375-13.808,46.109-31.448c0.693-3.261-1.952-6.299-5.307-6.299h-9.672c-0.007-0.029-0.003-0.059-0.013-0.082
		l-32.703-85.947c11.592-1.61,22.9-5.144,34.264-7.561c43.961-11.227,94.958-18.703,133.568,8.496v15.902h-99.034
		c-4.466,0-8.085,3.59-8.085,8.02v8.541c0,4.429,3.619,8.02,8.085,8.02H711.42c4.47,0,8.088-3.59,8.088-8.02v-8.541
		c0-4.43-3.618-8.02-8.088-8.02h-99.03v-15.85c10.969-7.59,23.398-12.99,36.719-15.895c31.777-6.987,65.136-0.342,96.851,7.347
		c10.157,2.342,22.859,5.809,34.282,7.509l-32.722,85.999c-0.009,0.023-0.006,0.053-0.016,0.082h-9.669
		c-3.361,0-5.999,3.038-5.31,6.299c3.734,17.641,22.899,31.116,46.11,31.448v0.036h0.873h9.582h2.71
		c23.603,0,43.2-13.606,46.978-31.479c0.696-3.263-1.945-6.305-5.307-6.305h-9.666c-0.01-0.029-0.007-0.059-0.015-0.082
		l-32.347-85.007c2.375,0.029,4.622-0.076,6.659-0.39c22.506-0.719,37.2-25.465,20.215-42.654
		c-3.686-4.545-21.165-12.101-22.262-2.651c-0.075,2.517,1.916,4.615,4.447,4.693c8.108,0.076,14.943,7.626,14.215,15.46
		c-5.863,21.862-34.328,10.763-72.642-0.332c-39.856-11.534-90.369-23.077-137.21,2.457v-8.314
		c8.667-2.164,15.09-9.921,15.09-19.189c0-10.932-8.931-19.799-19.958-19.799C588.982,322.563,580.047,331.43,580.047,342.362"/>
	<path fill="#A67B48" d="M436.356,366.381c27.245-63.353,90.646-107.869,164.332-107.869c73.907,0,137.467,44.78,164.579,108.432
		c4.158,1.376,8.935,2.785,13.634,3.785c-26.732-71.956-96.528-123.407-178.212-123.407c-81.588,0-151.318,51.337-178.117,123.165
		C426.596,369.687,431.251,368.401,436.356,366.381z"/>
	<rect x="525" y="567" fill="#A67B48" width="95" height="25"/>
</g>
</svg>
