<?xml version="1.0" encoding="utf-8"?>
<!-- Generator: Adobe Illustrator 15.1.0, SVG Export Plug-In . SVG Version: 6.00 Build 0)  -->
<!DOCTYPE svg PUBLIC "-//W3C//DTD SVG 1.1//EN" "http://www.w3.org/Graphics/SVG/1.1/DTD/svg11.dtd">
<svg version="1.1" id="Layer_1" xmlns="http://www.w3.org/2000/svg" xmlns:xlink="http://www.w3.org/1999/xlink" x="0px" y="0px"
	  width="1200px" height="900px" viewBox="500 400 1200 900" enable-background="new 0 0 1200 900" xml:space="preserve">
<g transform="scale(1.9)">
	<g>
		<path fill="#A67B48" d="M321.478,582.784c0-28.625,21.978-49.11,51.553-49.11c16.416,0,30.118,5.969,39.072,16.822l-14.109,13.023
			c-6.376-7.325-14.381-11.124-23.877-11.124c-17.772,0-30.39,12.481-30.39,30.389c0,17.908,12.617,30.39,30.39,30.39
			c9.496,0,17.501-3.799,23.877-11.261l14.109,13.024c-8.954,10.988-22.656,16.958-39.208,16.958
			C343.455,631.896,321.478,611.41,321.478,582.784z"/>
		<path fill="#A67B48" d="M489.974,588.618v41.649h-19.807v-9.09c-3.935,6.647-11.532,10.175-22.25,10.175
			c-17.094,0-27.269-9.496-27.269-22.113c0-12.888,9.09-21.842,31.339-21.842h16.822c0-9.09-5.426-14.381-16.822-14.381
			c-7.732,0-15.737,2.577-21.028,6.783l-7.597-14.787c8.004-5.698,19.807-8.818,31.474-8.818
			C477.086,556.194,489.974,566.505,489.974,588.618z M468.81,607.204v-7.461h-14.516c-9.904,0-13.024,3.662-13.024,8.547
			c0,5.291,4.478,8.818,11.938,8.818C460.263,617.108,466.368,613.852,468.81,607.204z"/>
		<path fill="#A67B48" d="M583.719,588.482v41.785h-21.163v-38.529c0-11.803-5.427-17.229-14.788-17.229
			c-10.175,0-17.501,6.241-17.501,19.672v36.087h-21.164v-72.988h20.215v8.547c5.697-6.24,14.245-9.632,24.148-9.632
			C570.695,556.194,583.719,566.233,583.719,588.482z"/>
		<path fill="#172E4E" d="M604.341,535.302h43.143c31.066,0,52.367,18.722,52.367,47.482c0,28.762-21.301,47.483-52.367,47.483
			h-43.143V535.302z M646.397,612.224c18.857,0,31.203-11.26,31.203-29.439c0-18.179-12.346-29.439-31.203-29.439h-20.078v58.879
			H646.397z"/>
		<path fill="#172E4E" d="M709.481,593.773c0-21.978,16.959-37.579,40.156-37.579c23.199,0,40.021,15.602,40.021,37.579
			s-16.822,37.579-40.021,37.579C726.44,631.353,709.481,615.751,709.481,593.773z M768.226,593.773
			c0-12.617-8.006-20.214-18.588-20.214s-18.721,7.597-18.721,20.214s8.139,20.214,18.721,20.214S768.226,606.391,768.226,593.773z"
			/>
		<path fill="#172E4E" d="M798.345,593.773c0-21.978,16.957-37.579,40.156-37.579s40.021,15.602,40.021,37.579
			s-16.822,37.579-40.021,37.579S798.345,615.751,798.345,593.773z M857.087,593.773c0-12.617-8.004-20.214-18.586-20.214
			s-18.723,7.597-18.723,20.214s8.141,20.214,18.723,20.214S857.087,606.391,857.087,593.773z"/>
	</g>
	<g>
		<g>
			<path fill="#A67B48" d="M584.173,426.593l-32.004,81.76c-0.729,1.864-2.537,3.093-4.549,3.093h-13.883
				c-3.433,0-5.797-3.425-4.553-6.598l42.82-109.386L584.173,426.593z"/>
			<path fill="#A67B48" d="M642.796,387.717H628.13c-2.67,0-4.838,2.151-4.838,4.8v118.929h19.518c2.665,0,4.826-2.148,4.826-4.789
				v-114.14C647.636,389.868,645.47,387.717,642.796,387.717"/>
			<path fill="#A67B48" d="M600.604,390.783l16.607,42.423v62.146l-42.146-107.639h21.021
				C598.087,387.714,599.88,388.933,600.604,390.783"/>
		</g>
		<path fill="#172E4E" d="M489.799,359.587l17.966,47.219h-15.473h-2.493V359.587z M709.257,359.587v47.219h-2.493h-15.47
			L709.257,359.587z M486.778,358.487v48.318h-0.763h-17.623L486.778,358.487z M712.278,358.483l18.385,48.322H713.04h-0.762
			V358.483z M587.549,325.158c0,5.563,3.854,10.221,9.056,11.52v5.028c-7.547-4.07-15.79-6.866-24.135-8.172
			c-21.591-3.473-42.9,1.885-63.057,8.031c-9.445,2.55-19.059,6.756-28.805,6.293c-7.523,0.105-13.38-7.44-7.783-13.8
			c1.57-1.765,3.889-2.87,6.336-2.946c1.439-0.051,2.627-1.204,2.673-2.652c0.046-1.509-1.15-2.77-2.673-2.813
			c-8.16-0.355-15.4,6.869-15.124,15.043c-0.017,8.762,10.104,14.881,16.039,14.766c1.524,0.167,3.039,0.229,4.543,0.22
			l-19.435,51.082c-0.006,0.015-0.002,0.032-0.008,0.049h-5.803c-1.782,0-3.225,1.421-3.256,3.103v0.105
			c0.005,0.19,0.026,0.384,0.066,0.578c2.273,10.728,14.035,18.896,28.205,18.896h1.626h5.755h0.521v-0.021
			c13.934-0.2,25.438-8.289,27.68-18.88c0.416-1.957-1.172-3.781-3.186-3.781h-5.807c-0.004-0.017-0.002-0.034-0.008-0.049
			l-19.632-51.595c6.959-0.967,13.747-3.088,20.569-4.539c26.391-6.739,57.005-11.228,80.183,5.101v9.546h-59.451
			c-2.681,0-4.854,2.155-4.854,4.814v5.127c0,2.659,2.173,4.814,4.854,4.814h133.772c2.684,0,4.855-2.155,4.855-4.814v-5.127
			c0-2.659-2.172-4.814-4.855-4.814h-59.449v-9.515c6.585-4.557,14.047-7.798,22.043-9.542c19.076-4.194,39.102-0.205,58.141,4.41
			c6.098,1.406,13.723,3.487,20.58,4.508l-19.644,51.626c-0.005,0.015-0.003,0.032-0.009,0.049h-5.805
			c-2.018,0-3.602,1.824-3.188,3.781c2.242,10.591,13.747,18.68,27.681,18.88v0.021h0.524h5.752h1.627
			c14.169,0,25.934-8.168,28.201-18.896c0.418-1.96-1.168-3.786-3.186-3.786h-5.803c-0.006-0.017-0.004-0.034-0.009-0.049
			l-19.418-51.03c1.426,0.018,2.774-0.046,3.997-0.234c13.511-0.432,22.332-15.287,12.136-25.605
			c-2.213-2.729-12.706-7.265-13.364-1.592c-0.045,1.511,1.15,2.771,2.67,2.817c4.867,0.046,8.971,4.578,8.533,9.281
			c-3.52,13.124-20.607,6.461-43.607-0.199c-23.927-6.924-54.25-13.854-82.369,1.475v-4.991c5.203-1.299,9.059-5.956,9.059-11.52
			c0-6.563-5.361-11.886-11.98-11.886C592.913,313.272,587.549,318.596,587.549,325.158"/>
		<path fill="#A67B48" d="M501.763,339.577c16.355-38.031,54.416-64.755,98.65-64.755c44.367,0,82.523,26.882,98.799,65.093
			c2.496,0.826,5.363,1.672,8.185,2.272c-16.048-43.196-57.947-74.083-106.983-74.083c-48.979,0-90.838,30.818-106.926,73.938
			C495.903,341.562,498.698,340.79,501.763,339.577z"/>
		<rect x="555" y="460" fill="#A67B48" width="57" height="15"/>
	</g>
</g>
</svg>
